<svg width="215" height="46" viewBox="0 0 215 46" fill="none" xmlns="http://www.w3.org/2000/svg">
<rect width="215" height="45" rx="6" fill="white"/>
<g filter="url(#filter0_d)">
<path d="M31.54 7.3C31.78 7.3 31.9933 7.37333 32.18 7.52C32.38 7.66667 32.4933 7.88667 32.52 8.18V10.2C32.52 10.4667 32.44 10.7 32.28 10.9C32.12 11.0867 31.8733 11.18 31.54 11.18H23.22V36.08C23.22 36.32 23.14 36.5333 22.98 36.72C22.82 36.9067 22.5933 37 22.3 37H20.28C20.04 37 19.8267 36.9133 19.64 36.74C19.4533 36.5667 19.36 36.3467 19.36 36.08V11.18H11C10.7333 11.18 10.5133 11.1 10.34 10.94C10.1667 10.78 10.08 10.5333 10.08 10.2V8.18C10.08 7.91333 10.1667 7.7 10.34 7.54C10.5133 7.38 10.7333 7.3 11 7.3H31.54ZM37.0447 8.26C37.0447 7.62 37.338 7.3 37.9247 7.3H49.4647C50.798 7.3 52.038 7.55333 53.1847 8.06C54.3314 8.55333 55.3314 9.23333 56.1847 10.1C57.038 10.9533 57.7047 11.96 58.1847 13.12C58.678 14.2667 58.9247 15.4933 58.9247 16.8C58.9247 17.7333 58.7914 18.6333 58.5247 19.5C58.2714 20.3533 57.9114 21.1467 57.4447 21.88C56.978 22.6133 56.418 23.2733 55.7647 23.86C55.1114 24.4333 54.3847 24.9133 53.5847 25.3L58.8647 36.12V36.38C58.8647 36.7933 58.618 37 58.1247 37H55.7047C55.2914 37 54.9714 36.7533 54.7447 36.26L49.9447 26.18C49.838 26.1933 49.718 26.2 49.5847 26.2C49.4647 26.2 49.2847 26.2067 49.0447 26.22C48.818 26.22 48.5114 26.22 48.1247 26.22C47.738 26.22 47.2247 26.22 46.5847 26.22C45.958 26.22 45.1847 26.22 44.2647 26.22C43.3447 26.22 42.2314 26.22 40.9247 26.22V36.12C40.9247 36.7067 40.618 37 40.0047 37H37.9247C37.338 37 37.0447 36.7067 37.0447 36.12V8.26ZM55.0847 16.76C55.0847 16.0267 54.938 15.32 54.6447 14.64C54.3647 13.96 53.9714 13.36 53.4647 12.84C52.9714 12.32 52.378 11.9067 51.6847 11.6C51.0047 11.28 50.2647 11.12 49.4647 11.12H40.9247V22.4H49.5447C50.3314 22.4 51.0647 22.2467 51.7447 21.94C52.4247 21.6333 53.0114 21.22 53.5047 20.7C53.998 20.18 54.3847 19.58 54.6647 18.9C54.9447 18.22 55.0847 17.5067 55.0847 16.76ZM64.5247 8.18C64.5247 7.94 64.598 7.73333 64.7447 7.56C64.9047 7.38667 65.1247 7.3 65.4047 7.3H67.4847C67.7247 7.3 67.938 7.38 68.1247 7.54C68.3114 7.7 68.4047 7.91333 68.4047 8.18V36.12C68.4047 36.7067 68.098 37 67.4847 37H65.4047C64.818 37 64.5247 36.7067 64.5247 36.12V8.18ZM74.9163 8.26C74.9163 7.62 75.2229 7.3 75.8363 7.3H85.7763C87.0963 7.3 88.3163 7.54667 89.4363 8.04C90.5696 8.53333 91.5496 9.20667 92.3763 10.06C93.2029 10.9 93.8496 11.8867 94.3163 13.02C94.7829 14.14 95.0163 15.3267 95.0163 16.58C95.0163 17.8067 94.7829 18.9733 94.3163 20.08C93.8629 21.1867 93.2229 22.1667 92.3963 23.02C91.5829 23.86 90.6163 24.5333 89.4963 25.04C88.3896 25.5333 87.1829 25.78 85.8763 25.78H78.7763V36.12C78.7763 36.7067 78.4829 37 77.8963 37H75.7963C75.2096 37 74.9163 36.7067 74.9163 36.12V8.26ZM91.1563 16.54C91.1563 15.8333 91.0163 15.1533 90.7363 14.5C90.4563 13.8467 90.0696 13.2733 89.5763 12.78C89.0963 12.2733 88.5296 11.8733 87.8763 11.58C87.2229 11.2733 86.5229 11.12 85.7763 11.12H78.7763V21.96H85.7763C86.4963 21.96 87.1829 21.8133 87.8363 21.52C88.4896 21.2267 89.0629 20.8333 89.5563 20.34C90.0496 19.8333 90.4363 19.2533 90.7163 18.6C91.0096 17.9467 91.1563 17.26 91.1563 16.54ZM98.8422 8.18C98.8422 7.91333 98.9289 7.7 99.1022 7.54C99.2889 7.38 99.5155 7.3 99.7822 7.3H121.322C121.562 7.3 121.776 7.37333 121.962 7.52C122.149 7.66667 122.256 7.88667 122.282 8.18V13.16C122.282 13.4 122.196 13.6333 122.022 13.86C121.862 14.0733 121.629 14.18 121.322 14.18H114.422V36.06C114.422 36.3 114.336 36.52 114.162 36.72C113.989 36.9067 113.762 37 113.482 37H107.602C107.376 37 107.162 36.9133 106.962 36.74C106.762 36.5533 106.662 36.3267 106.662 36.06V14.18H99.7822C99.5155 14.18 99.2889 14.0933 99.1022 13.92C98.9289 13.7467 98.8422 13.4933 98.8422 13.16V8.18ZM138.003 18.26L142.843 7.92C142.923 7.76 142.989 7.64667 143.043 7.58C143.096 7.5 143.149 7.44666 143.203 7.42C143.256 7.38 143.309 7.36 143.363 7.36C143.429 7.34667 143.503 7.32667 143.583 7.3H151.283C151.376 7.3 151.449 7.33333 151.503 7.4C151.569 7.45333 151.603 7.52 151.603 7.6C151.603 7.74667 151.509 7.91333 151.323 8.1L141.843 24.88V36.06C141.843 36.6867 141.536 37 140.923 37H134.923C134.656 37 134.449 36.92 134.303 36.76C134.156 36.5867 134.083 36.3533 134.083 36.06V24.84L124.623 8.1C124.449 7.92667 124.363 7.76 124.363 7.6C124.363 7.52 124.389 7.45333 124.443 7.4C124.496 7.33333 124.569 7.3 124.663 7.3H132.363C132.456 7.32667 132.529 7.34667 132.583 7.36C132.636 7.36 132.689 7.38 132.743 7.42C132.796 7.44666 132.849 7.5 132.903 7.58C132.956 7.64667 133.029 7.76 133.123 7.92L138.003 18.26ZM154.926 8.22C154.926 7.94 154.999 7.72 155.146 7.56C155.293 7.38667 155.513 7.3 155.806 7.3H168.586C169.506 7.3 170.373 7.42667 171.186 7.68C171.999 7.93333 172.746 8.28667 173.426 8.74C174.106 9.18 174.719 9.71333 175.266 10.34C175.813 10.9533 176.273 11.62 176.646 12.34C177.033 13.06 177.326 13.82 177.526 14.62C177.726 15.4067 177.826 16.2067 177.826 17.02C177.826 18.22 177.606 19.3933 177.166 20.54C176.739 21.6867 176.126 22.7067 175.326 23.6C174.526 24.4933 173.566 25.22 172.446 25.78C171.326 26.3267 170.086 26.6067 168.726 26.62H162.666V36.14C162.666 36.7133 162.359 37 161.746 37H155.806C155.539 37 155.326 36.9333 155.166 36.8C155.006 36.6533 154.926 36.4333 154.926 36.14V8.22ZM169.986 16.98C169.986 16.58 169.913 16.18 169.766 15.78C169.633 15.38 169.433 15.0267 169.166 14.72C168.899 14.4 168.573 14.14 168.186 13.94C167.813 13.74 167.386 13.64 166.906 13.64H162.666V20.32H166.906C167.386 20.32 167.819 20.2267 168.206 20.04C168.593 19.84 168.913 19.5867 169.166 19.28C169.433 18.9733 169.633 18.62 169.766 18.22C169.913 17.82 169.986 17.4067 169.986 16.98ZM182.181 8.22C182.181 7.94 182.254 7.72 182.401 7.56C182.561 7.38667 182.781 7.3 183.061 7.3H202.921C203.214 7.3 203.441 7.38667 203.601 7.56C203.761 7.73333 203.841 7.96666 203.841 8.26V13.22C203.841 13.4467 203.761 13.6667 203.601 13.88C203.441 14.08 203.208 14.18 202.901 14.18H189.941V19.12H199.941C200.194 19.12 200.401 19.18 200.561 19.3C200.734 19.42 200.821 19.62 200.821 19.9V24.22C200.821 24.4067 200.748 24.5867 200.601 24.76C200.454 24.9333 200.241 25.02 199.961 25.02H189.941V30.12H203.381C203.981 30.12 204.281 30.4267 204.281 31.04V36.08C204.281 36.2133 204.228 36.3333 204.121 36.44C204.068 36.8133 203.794 37 203.301 37H183.061C182.794 37 182.581 36.9333 182.421 36.8C182.261 36.6533 182.181 36.4333 182.181 36.14V8.22Z" fill="#6457FF"/>
</g>
<defs>
<filter id="filter0_d" x="6.08008" y="5.30005" width="202.201" height="37.7" filterUnits="userSpaceOnUse" color-interpolation-filters="sRGB">
<feFlood flood-opacity="0" result="BackgroundImageFix"/>
<feColorMatrix in="SourceAlpha" type="matrix" values="0 0 0 0 0 0 0 0 0 0 0 0 0 0 0 0 0 0 127 0"/>
<feOffset dy="2"/>
<feGaussianBlur stdDeviation="2"/>
<feColorMatrix type="matrix" values="0 0 0 0 0 0 0 0 0 0 0 0 0 0 0 0 0 0 0.15 0"/>
<feBlend mode="normal" in2="BackgroundImageFix" result="effect1_dropShadow"/>
<feBlend mode="normal" in="SourceGraphic" in2="effect1_dropShadow" result="shape"/>
</filter>
</defs>
</svg>
