<svg width="195" height="30" viewBox="0 0 195 30" fill="none" xmlns="http://www.w3.org/2000/svg">
<path d="M21.54 0.3C21.78 0.3 21.9933 0.373333 22.18 0.519998C22.38 0.666665 22.4933 0.886665 22.52 1.18V3.2C22.52 3.46667 22.44 3.7 22.28 3.9C22.12 4.08667 21.8733 4.18 21.54 4.18H13.22V29.08C13.22 29.32 13.14 29.5333 12.98 29.72C12.82 29.9067 12.5933 30 12.3 30H10.28C10.04 30 9.82667 29.9133 9.64 29.74C9.45333 29.5667 9.36 29.3467 9.36 29.08V4.18H1C0.733333 4.18 0.513333 4.1 0.34 3.94C0.166667 3.78 0.08 3.53333 0.08 3.2V1.18C0.08 0.913332 0.166667 0.699999 0.34 0.539999C0.513333 0.379999 0.733333 0.3 1 0.3H21.54ZM27.0447 1.26C27.0447 0.62 27.338 0.3 27.9247 0.3H39.4647C40.798 0.3 42.038 0.553333 43.1847 1.06C44.3314 1.55333 45.3314 2.23333 46.1847 3.1C47.038 3.95333 47.7047 4.96 48.1847 6.12C48.678 7.26667 48.9247 8.49333 48.9247 9.8C48.9247 10.7333 48.7914 11.6333 48.5247 12.5C48.2714 13.3533 47.9114 14.1467 47.4447 14.88C46.978 15.6133 46.418 16.2733 45.7647 16.86C45.1114 17.4333 44.3847 17.9133 43.5847 18.3L48.8647 29.12V29.38C48.8647 29.7933 48.618 30 48.1247 30H45.7047C45.2914 30 44.9714 29.7533 44.7447 29.26L39.9447 19.18C39.838 19.1933 39.718 19.2 39.5847 19.2C39.4647 19.2 39.2847 19.2067 39.0447 19.22C38.818 19.22 38.5114 19.22 38.1247 19.22C37.738 19.22 37.2247 19.22 36.5847 19.22C35.958 19.22 35.1847 19.22 34.2647 19.22C33.3447 19.22 32.2314 19.22 30.9247 19.22V29.12C30.9247 29.7067 30.618 30 30.0047 30H27.9247C27.338 30 27.0447 29.7067 27.0447 29.12V1.26ZM45.0847 9.76C45.0847 9.02667 44.938 8.32 44.6447 7.64C44.3647 6.96 43.9714 6.36 43.4647 5.84C42.9714 5.32 42.378 4.90666 41.6847 4.6C41.0047 4.28 40.2647 4.12 39.4647 4.12H30.9247V15.4H39.5447C40.3314 15.4 41.0647 15.2467 41.7447 14.94C42.4247 14.6333 43.0114 14.22 43.5047 13.7C43.998 13.18 44.3847 12.58 44.6647 11.9C44.9447 11.22 45.0847 10.5067 45.0847 9.76ZM54.5247 1.18C54.5247 0.939998 54.598 0.733331 54.7447 0.559998C54.9047 0.386666 55.1247 0.3 55.4047 0.3H57.4847C57.7247 0.3 57.938 0.379999 58.1247 0.539999C58.3114 0.699999 58.4047 0.913332 58.4047 1.18V29.12C58.4047 29.7067 58.098 30 57.4847 30H55.4047C54.818 30 54.5247 29.7067 54.5247 29.12V1.18ZM64.9163 1.26C64.9163 0.62 65.2229 0.3 65.8363 0.3H75.7763C77.0963 0.3 78.3163 0.546666 79.4363 1.04C80.5696 1.53333 81.5496 2.20667 82.3763 3.06C83.2029 3.9 83.8496 4.88667 84.3163 6.02C84.7829 7.14 85.0163 8.32667 85.0163 9.58C85.0163 10.8067 84.7829 11.9733 84.3163 13.08C83.8629 14.1867 83.2229 15.1667 82.3963 16.02C81.5829 16.86 80.6163 17.5333 79.4963 18.04C78.3896 18.5333 77.1829 18.78 75.8763 18.78H68.7763V29.12C68.7763 29.7067 68.4829 30 67.8963 30H65.7963C65.2096 30 64.9163 29.7067 64.9163 29.12V1.26ZM81.1563 9.54C81.1563 8.83333 81.0163 8.15333 80.7363 7.5C80.4563 6.84667 80.0696 6.27333 79.5763 5.78C79.0963 5.27333 78.5296 4.87333 77.8763 4.58C77.2229 4.27333 76.5229 4.12 75.7763 4.12H68.7763V14.96H75.7763C76.4963 14.96 77.1829 14.8133 77.8363 14.52C78.4896 14.2267 79.0629 13.8333 79.5563 13.34C80.0496 12.8333 80.4363 12.2533 80.7163 11.6C81.0096 10.9467 81.1563 10.26 81.1563 9.54ZM88.8422 1.18C88.8422 0.913332 88.9289 0.699999 89.1022 0.539999C89.2889 0.379999 89.5155 0.3 89.7822 0.3H111.322C111.562 0.3 111.776 0.373333 111.962 0.519998C112.149 0.666665 112.256 0.886665 112.282 1.18V6.16C112.282 6.4 112.196 6.63333 112.022 6.86C111.862 7.07333 111.629 7.18 111.322 7.18H104.422V29.06C104.422 29.3 104.336 29.52 104.162 29.72C103.989 29.9067 103.762 30 103.482 30H97.6022C97.3755 30 97.1622 29.9133 96.9622 29.74C96.7622 29.5533 96.6622 29.3267 96.6622 29.06V7.18H89.7822C89.5155 7.18 89.2889 7.09333 89.1022 6.92C88.9289 6.74667 88.8422 6.49333 88.8422 6.16V1.18ZM128.003 11.26L132.843 0.919998C132.923 0.759998 132.989 0.646665 133.043 0.579998C133.096 0.499998 133.149 0.446664 133.203 0.419998C133.256 0.379998 133.309 0.359998 133.363 0.359998C133.429 0.346665 133.503 0.326666 133.583 0.3H141.283C141.376 0.3 141.449 0.333333 141.503 0.4C141.569 0.453332 141.603 0.519999 141.603 0.599999C141.603 0.746665 141.509 0.913332 141.323 1.1L131.843 17.88V29.06C131.843 29.6867 131.536 30 130.923 30H124.923C124.656 30 124.449 29.92 124.303 29.76C124.156 29.5867 124.083 29.3533 124.083 29.06V17.84L114.623 1.1C114.449 0.926665 114.363 0.759999 114.363 0.599999C114.363 0.519999 114.389 0.453332 114.443 0.4C114.496 0.333333 114.569 0.3 114.663 0.3H122.363C122.456 0.326666 122.529 0.346665 122.583 0.359998C122.636 0.359998 122.689 0.379998 122.743 0.419998C122.796 0.446664 122.849 0.499998 122.903 0.579998C122.956 0.646665 123.029 0.759998 123.123 0.919998L128.003 11.26ZM144.926 1.22C144.926 0.939999 144.999 0.719999 145.146 0.559998C145.293 0.386666 145.513 0.3 145.806 0.3H158.586C159.506 0.3 160.373 0.426666 161.186 0.679998C161.999 0.933332 162.746 1.28667 163.426 1.74C164.106 2.18 164.719 2.71333 165.266 3.34C165.813 3.95333 166.273 4.62 166.646 5.34C167.033 6.06 167.326 6.82 167.526 7.62C167.726 8.40667 167.826 9.20667 167.826 10.02C167.826 11.22 167.606 12.3933 167.166 13.54C166.739 14.6867 166.126 15.7067 165.326 16.6C164.526 17.4933 163.566 18.22 162.446 18.78C161.326 19.3267 160.086 19.6067 158.726 19.62H152.666V29.14C152.666 29.7133 152.359 30 151.746 30H145.806C145.539 30 145.326 29.9333 145.166 29.8C145.006 29.6533 144.926 29.4333 144.926 29.14V1.22ZM159.986 9.98C159.986 9.58 159.913 9.18 159.766 8.78C159.633 8.38 159.433 8.02667 159.166 7.72C158.899 7.4 158.573 7.14 158.186 6.94C157.813 6.74 157.386 6.64 156.906 6.64H152.666V13.32H156.906C157.386 13.32 157.819 13.2267 158.206 13.04C158.593 12.84 158.913 12.5867 159.166 12.28C159.433 11.9733 159.633 11.62 159.766 11.22C159.913 10.82 159.986 10.4067 159.986 9.98ZM172.181 1.22C172.181 0.939999 172.254 0.719999 172.401 0.559998C172.561 0.386666 172.781 0.3 173.061 0.3H192.921C193.214 0.3 193.441 0.386666 193.601 0.559998C193.761 0.733331 193.841 0.966665 193.841 1.26V6.22C193.841 6.44667 193.761 6.66667 193.601 6.88C193.441 7.08 193.208 7.18 192.901 7.18H179.941V12.12H189.941C190.194 12.12 190.401 12.18 190.561 12.3C190.734 12.42 190.821 12.62 190.821 12.9V17.22C190.821 17.4067 190.748 17.5867 190.601 17.76C190.454 17.9333 190.241 18.02 189.961 18.02H179.941V23.12H193.381C193.981 23.12 194.281 23.4267 194.281 24.04V29.08C194.281 29.2133 194.228 29.3333 194.121 29.44C194.068 29.8133 193.794 30 193.301 30H173.061C172.794 30 172.581 29.9333 172.421 29.8C172.261 29.6533 172.181 29.4333 172.181 29.14V1.22Z" fill="white"/>
</svg>
