<?xml version="1.0"?>
<svg xmlns="http://www.w3.org/2000/svg" xmlns:xlink="http://www.w3.org/1999/xlink" xmlns:svgjs="http://svgjs.com/svgjs" version="1.1" width="512" height="512" x="0" y="0" viewBox="0 0 64 64" style="enable-background:new 0 0 512 512" xml:space="preserve"><g><path xmlns="http://www.w3.org/2000/svg" d="m61 3.998h-58c-1.654 0-3 1.346-3 3v52.004c0 .553.447 1 1 1h62c.553 0 1-.447 1-1v-52.004c0-1.654-1.346-3-3-3zm-59 6h60v48.004h-60zm1-4h1.02c-.552 0-.994.447-.994 1s.452 1 1.005 1c.552 0 1-.447 1-1s-.448-1-1-1h2.988c-.552 0-.994.447-.994 1s.452 1 1.005 1c.552 0 1-.447 1-1s-.448-1-1-1h2.992c-.552 0-.994.447-.994 1s.452 1 1.005 1c.552 0 1-.447 1-1s-.448-1-1-1h50.967c.552 0 1 .448 1 1v1h-51.968-3.003-2.999-2.03v-1c0-.552.448-1 1-1z" fill="#6457ff" data-original="#000000" style=""/><path xmlns="http://www.w3.org/2000/svg" d="m59.001 11.998h-54.001c-.553 0-1 .447-1 1v27.994c0 .553.447 1 1 1h11.952c.012 0 .024.006.036.006.009 0 .017-.006.025-.006h41.987c.553 0 1-.447 1-1v-27.994c.001-.553-.446-1-.999-1zm-32.01 17.641 2.768 3.597-5.258 6.757h-5.476zm12.001-5.014 11.958 15.367h-23.915zm19.009 15.367h-4.517l-13.703-17.61c-.025-.033-.063-.05-.091-.078-.03-.03-.048-.069-.083-.097-.021-.017-.048-.021-.069-.035-.057-.037-.114-.063-.177-.088-.061-.024-.118-.048-.182-.06-.062-.012-.12-.013-.183-.013-.066 0-.129 0-.194.013-.061.012-.115.034-.173.058-.064.025-.125.052-.184.091-.021.015-.047.018-.068.034-.035.027-.053.065-.083.097-.028.028-.065.045-.091.078l-7.177 9.223-3.243-4.216c-.026-.034-.064-.052-.095-.082-.031-.032-.051-.073-.088-.102-.02-.016-.044-.019-.064-.031-.058-.039-.117-.064-.181-.089-.059-.023-.115-.048-.176-.06-.063-.012-.125-.012-.189-.012-.063 0-.126 0-.188.012-.061.012-.117.035-.176.059-.063.025-.123.051-.182.09-.02.014-.044.017-.063.031-.037.028-.056.068-.088.101-.03.03-.068.048-.095.083l-9.698 12.604h-10.5v-25.995h52.001z" fill="#6457ff" data-original="#000000" style=""/><path xmlns="http://www.w3.org/2000/svg" d="m21 42.999h-16c-.553 0-1 .447-1 1v11.001c0 .553.447 1 1 1h16 .001c.118 0 .235-.027.349-.07.039-.015.072-.035.109-.055.04-.021.084-.034.122-.062.022-.016.033-.04.054-.058.054-.045.099-.096.142-.151.038-.05.074-.097.102-.15.029-.057.048-.115.066-.177.02-.066.034-.129.04-.197.001-.028.015-.052.015-.08v-11.001c0-.553-.447-1-1-1zm-15 2h14v6.88l-3.187-4.462c-.033-.046-.08-.072-.119-.111s-.066-.088-.113-.121c-.01-.007-.021-.008-.032-.015-.062-.04-.129-.062-.197-.088-.054-.021-.104-.05-.161-.061-.065-.013-.131-.006-.197-.005-.062 0-.121-.007-.182.005-.059.011-.112.041-.17.063-.065.025-.131.046-.19.085-.01.007-.022.008-.032.015-.048.034-.074.082-.114.122-.038.039-.086.064-.118.11l-2.663 3.729-1.204-1.721c-.034-.05-.084-.078-.125-.119-.042-.042-.071-.092-.121-.127-.007-.005-.016-.005-.022-.01-.065-.044-.14-.065-.213-.093-.05-.018-.096-.046-.146-.056-.063-.013-.127-.004-.191-.004s-.128-.009-.191.004c-.051.01-.098.038-.147.056-.073.027-.146.049-.212.093-.008.005-.016.005-.022.01-.049.034-.077.083-.118.124-.042.042-.093.071-.128.122l-3.206 4.576h-.479zm2.92 9.001 1.58-2.257.791 1.13-.806 1.127zm7.08-4.281 3.058 4.281h-6.115z" fill="#6457ff" data-original="#000000" style=""/><path xmlns="http://www.w3.org/2000/svg" d="m8.03 47.999c.552 0 1-.447 1-1s-.448-1-1-1h-.01c-.552 0-.994.447-.994 1s.452 1 1.004 1z" fill="#6457ff" data-original="#000000" style=""/><path xmlns="http://www.w3.org/2000/svg" d="m40 42.999h-16c-.553 0-1 .447-1 1v11.001c0 .553.447 1 1 1h16 .001c.118 0 .235-.027.349-.07.039-.015.072-.035.109-.055.04-.021.084-.034.122-.062.022-.016.033-.04.054-.058.054-.045.099-.096.142-.151.038-.05.074-.097.102-.15.029-.057.048-.115.066-.177.02-.066.034-.129.04-.197.001-.028.015-.052.015-.08v-11.001c0-.553-.447-1-1-1zm-15 2h14v6.88l-3.187-4.462c-.033-.046-.08-.072-.119-.111s-.066-.088-.113-.121c-.01-.007-.021-.008-.032-.015-.062-.04-.129-.062-.197-.088-.054-.021-.104-.05-.161-.061-.065-.013-.131-.006-.197-.005-.062 0-.121-.007-.182.005-.059.011-.112.041-.17.063-.065.025-.131.046-.19.085-.01.007-.022.008-.032.015-.048.034-.074.082-.114.122-.038.039-.086.064-.118.11l-2.663 3.729-1.204-1.721c-.034-.05-.085-.079-.126-.12s-.07-.091-.12-.126c-.007-.005-.015-.005-.022-.01-.066-.044-.141-.066-.215-.094-.049-.018-.095-.045-.145-.055-.063-.013-.127-.004-.191-.004s-.128-.009-.191.004c-.05.01-.096.037-.145.055-.074.027-.148.05-.215.094-.008.005-.016.005-.022.01-.049.034-.077.083-.118.124-.042.042-.093.071-.128.122l-3.204 4.576h-.479zm2.92 9.001 1.58-2.257.791 1.13-.806 1.127zm7.08-4.281 3.058 4.281h-6.115z" fill="#6457ff" data-original="#000000" style=""/><path xmlns="http://www.w3.org/2000/svg" d="m27.03 47.999c.552 0 1-.447 1-1s-.448-1-1-1h-.01c-.552 0-.994.447-.994 1s.452 1 1.004 1z" fill="#6457ff" data-original="#000000" style=""/><path xmlns="http://www.w3.org/2000/svg" d="m59 42.999h-16c-.553 0-1 .447-1 1v11.001c0 .553.447 1 1 1h16 .001c.118 0 .235-.027.349-.07.039-.015.072-.035.109-.055.04-.021.084-.034.122-.062.022-.016.033-.04.054-.058.054-.045.099-.096.142-.151.038-.05.074-.097.102-.15.029-.057.048-.115.066-.177.02-.066.034-.129.04-.197.001-.028.015-.052.015-.08v-11.001c0-.553-.447-1-1-1zm-15 2h14v6.88l-3.187-4.462c-.033-.046-.08-.072-.118-.11-.04-.04-.067-.089-.114-.122-.01-.007-.021-.008-.032-.015-.061-.04-.128-.062-.195-.087-.055-.021-.106-.05-.163-.062-.065-.013-.131-.006-.197-.005-.062 0-.122-.007-.182.005s-.114.041-.171.063c-.065.025-.131.046-.189.085-.01.007-.022.008-.032.015-.048.034-.074.082-.114.122-.038.039-.086.064-.118.11l-2.663 3.729-1.204-1.721c-.034-.05-.085-.079-.126-.12s-.07-.091-.12-.126c-.007-.005-.015-.005-.022-.01-.066-.044-.141-.066-.215-.094-.049-.018-.095-.045-.145-.055-.063-.013-.127-.004-.191-.004s-.128-.009-.191.004c-.05.01-.096.037-.145.055-.074.027-.148.05-.215.094-.008.005-.016.005-.022.01-.049.034-.077.083-.118.124-.042.042-.093.071-.128.122l-3.204 4.576h-.479zm2.92 9.001 1.58-2.257.791 1.13-.806 1.127zm7.08-4.281 3.058 4.281h-6.115z" fill="#6457ff" data-original="#000000" style=""/><path xmlns="http://www.w3.org/2000/svg" d="m46.03 47.999c.552 0 1-.447 1-1s-.448-1-1-1h-.01c-.552 0-.994.447-.994 1s.452 1 1.004 1z" fill="#6457ff" data-original="#000000" style=""/><path xmlns="http://www.w3.org/2000/svg" d="m20.009 23.998c2.206 0 4-1.794 4-4s-1.794-4-4-4-4 1.794-4 4 1.794 4 4 4zm0-6c1.103 0 2 .897 2 2s-.897 2-2 2-2-.897-2-2 .897-2 2-2z" fill="#6457ff" data-original="#000000" style=""/><path xmlns="http://www.w3.org/2000/svg" d="m9.3 29.716c.195.195.451.293.707.293s.512-.098.707-.293c.391-.391.391-1.023 0-1.414l-1.292-1.293 1.292-1.292c.391-.391.391-1.023 0-1.414s-1.023-.391-1.414 0l-1.999 1.999c-.391.391-.391 1.023 0 1.414z" fill="#6457ff" data-original="#000000" style=""/><path xmlns="http://www.w3.org/2000/svg" d="m53.295 29.716c.195.195.451.293.707.293s.512-.098.707-.293l1.999-2c.391-.391.391-1.023 0-1.414l-1.999-1.999c-.391-.391-1.023-.391-1.414 0s-.391 1.023 0 1.414l1.292 1.292-1.292 1.293c-.391.39-.391 1.023 0 1.414z" fill="#6457ff" data-original="#000000" style=""/></g></svg>
